<svg xmlns="http://www.w3.org/2000/svg" xmlns:xlink="http://www.w3.org/1999/xlink" width="500" zoomAndPan="magnify" viewBox="0 0 375 374.999991" height="500" preserveAspectRatio="xMidYMid meet" version="1.0"><defs><g/><clipPath id="3db7d3202e"><path d="M 29 29 L 346 29 L 346 346 L 29 346 Z M 29 29 " clip-rule="nonzero"/></clipPath><clipPath id="746bbe5f6e"><path d="M 29.402344 126.066406 L 248.933594 29.398438 L 345.601562 248.929688 L 126.070312 345.597656 Z M 29.402344 126.066406 " clip-rule="nonzero"/></clipPath><clipPath id="09b8999251"><path d="M 29.402344 126.066406 L 248.933594 29.398438 L 345.601562 248.929688 L 126.070312 345.597656 Z M 29.402344 126.066406 " clip-rule="nonzero"/></clipPath></defs><g clip-path="url(#3db7d3202e)"><g clip-path="url(#746bbe5f6e)"><g clip-path="url(#09b8999251)"><path fill="#ff0000" d="M 29.402344 126.066406 L 248.933594 29.398438 L 345.601562 248.929688 L 126.070312 345.597656 Z M 29.402344 126.066406 " fill-opacity="1" fill-rule="nonzero"/></g></g></g><path stroke-linecap="butt" transform="matrix(2.93242, 0, 0, 2.93242, 78.803767, 4.239163)" fill="none" stroke-linejoin="miter" d="M 17.511983 30.944174 L 37.160326 62.951658 L 57.144355 30.944174 L 65.732346 30.944174 L 65.732346 91.000167 L 56.453 91.000167 L 56.453 66.365807 C 56.453 62.762501 56.522269 59.348351 56.662139 56.123359 C 56.815329 52.897034 57.060434 49.67737 57.396121 46.465699 L 39.716608 73.760244 L 34.06055 73.760244 L 16.820628 46.549621 C 17.156315 49.761292 17.378774 52.966303 17.490669 56.164654 C 17.617218 59.363004 17.679826 62.762501 17.679826 66.365807 L 17.679826 91.000167 L 8.40048 91.000167 L 8.40048 30.944174 Z M 17.511983 30.944174 " stroke="#ffffff" stroke-width="6.43533" stroke-opacity="1" stroke-miterlimit="4"/><g fill="#ffffff" fill-opacity="1"><g transform="translate(78.803767, 271.089355)"><g><path d="M 51.328125 -176.125 L 108.953125 -82.28125 L 167.578125 -176.125 L 192.734375 -176.125 L 192.734375 0 L 165.5625 0 L 165.5625 -72.21875 C 165.5625 -82.78125 165.769531 -92.800781 166.1875 -102.28125 C 166.601562 -111.757812 167.316406 -121.191406 168.328125 -130.578125 L 116.5 -50.578125 L 99.890625 -50.578125 L 49.3125 -130.328125 C 50.320312 -120.941406 50.992188 -111.550781 51.328125 -102.15625 C 51.660156 -92.757812 51.828125 -82.78125 51.828125 -72.21875 L 51.828125 0 L 24.65625 0 L 24.65625 -176.125 Z M 51.328125 -176.125 "/></g></g></g></svg>